<?xml version="1.0" standalone="no"?>
<!DOCTYPE svg PUBLIC "-//W3C//DTD SVG 20010904//EN"
 "http://www.w3.org/TR/2001/REC-SVG-20010904/DTD/svg10.dtd">
<svg version="1.0" xmlns="http://www.w3.org/2000/svg"
 width="1024.000000pt" height="1024.000000pt" viewBox="0 0 1024.000000 1024.000000"
 preserveAspectRatio="xMidYMid meet">

<g transform="translate(0.000000,1024.000000) scale(0.100000,-0.100000)"
fill="#000000" stroke="none">
<path d="M6225 8464 c-181 -43 -323 -110 -598 -281 -97 -61 -120 -72 -136 -63
-25 13 -98 13 -106 0 -3 -5 -13 -10 -21 -10 -11 0 -14 16 -14 75 0 76 -15 130
-41 151 -19 16 -562 26 -644 13 -71 -12 -115 -48 -141 -116 -24 -61 -15 -281
15 -373 11 -36 23 -87 27 -114 4 -32 14 -57 29 -72 22 -22 33 -24 115 -24 l90
0 0 -85 0 -85 -117 1 c-92 2 -125 -1 -150 -14 -52 -27 -73 -63 -73 -122 0 -28
-3 -92 -6 -141 l-7 -89 -196 0 -197 -1 -75 -35 c-150 -72 -228 -177 -250 -334
-10 -73 -7 -113 35 -460 25 -209 53 -429 61 -490 8 -60 22 -173 30 -250 34
-298 56 -369 142 -457 26 -26 73 -59 107 -75 l61 -28 805 0 805 0 55 29 c67
35 106 67 143 116 55 76 56 82 163 915 89 697 90 721 28 846 -29 58 -127 149
-200 185 -67 33 -186 46 -394 42 l-135 -2 -3 187 -2 187 -169 0 -168 0 -7 75
c-4 42 -4 80 -1 85 3 6 22 10 41 10 27 0 34 4 34 20 0 10 14 35 30 54 23 26
32 48 37 88 6 49 11 58 75 121 l68 67 22 -20 c24 -22 40 -25 69 -10 29 16 73
-11 154 -94 208 -212 406 -341 603 -393 127 -33 340 -38 442 -9 103 29 222 91
288 152 67 60 140 169 168 251 17 49 17 54 0 126 -16 72 -57 151 -113 225 -63
83 -248 193 -379 226 -80 21 -314 20 -399 0z m-1442 -248 c3 -7 8 -74 12 -148
7 -131 7 -136 -13 -142 -29 -9 -70 3 -76 22 -3 10 -6 70 -8 134 -1 84 2 121
11 132 16 20 67 21 74 2z m190 -562 c12 -4 13 -12 6 -37 -5 -17 -6 -40 -3 -50
4 -11 -1 -23 -12 -31 -22 -17 -10 -36 24 -36 56 0 53 -17 -4 -23 -86 -9 -91
-3 -83 85 4 40 8 79 8 86 1 12 38 16 64 6z m-342 -277 c11 -17 15 -49 15 -142
l-1 -120 -40 0 -40 0 -8 85 c-13 147 27 244 74 177z m1170 -488 c46 -16 97
-55 120 -92 43 -71 43 -113 4 -459 -63 -564 -115 -961 -135 -1028 -24 -83 -65
-127 -123 -135 -23 -3 -351 -5 -729 -3 -679 3 -687 3 -715 24 -38 28 -69 85
-82 153 -12 62 -65 454 -112 826 -31 249 -47 504 -35 568 11 61 77 124 156
148 43 13 1612 11 1651 -2z"/>
<path d="M4131 6812 c-19 -9 -44 -30 -55 -45 -35 -47 -27 -186 32 -592 28
-192 65 -453 82 -580 18 -129 37 -236 44 -245 22 -25 26 -50 14 -70 -7 -10 -9
-23 -4 -27 4 -4 329 -9 722 -11 l714 -2 10 22 c5 13 21 106 35 208 13 102 38
275 54 385 27 178 89 657 105 805 8 67 -12 113 -63 147 l-34 23 -811 0 c-752
0 -813 -1 -845 -18z m94 -152 c20 -38 19 -53 -4 -74 -34 -31 -71 6 -71 73 0
58 45 59 75 1z"/>
<path d="M2651 4331 c-45 -24 -71 -59 -71 -100 0 -18 -25 -92 -55 -165 -30
-72 -115 -286 -189 -476 l-134 -344 -58 -31 c-33 -16 -60 -38 -62 -47 -3 -17
11 -18 183 -18 l186 0 -3 23 c-2 15 -18 29 -54 46 l-51 23 5 52 c2 28 15 84
29 124 l26 72 207 0 207 0 36 -112 36 -113 -40 -35 c-23 -21 -39 -45 -39 -58
l0 -22 215 0 c205 0 215 1 215 19 0 13 -20 30 -63 55 -35 19 -69 41 -75 48 -6
7 -17 42 -26 78 -8 36 -47 160 -86 275 -40 116 -98 289 -130 385 -32 96 -74
211 -94 255 -39 89 -54 97 -115 66z m70 -549 c34 -101 59 -185 57 -187 -7 -7
-338 -10 -338 -3 0 4 21 62 46 130 25 68 61 166 79 218 19 52 39 109 45 125
l12 30 19 -65 c11 -36 47 -147 80 -248z"/>
<path d="M1310 4317 c0 -17 59 -77 75 -77 7 0 16 -7 19 -16 3 -9 6 -227 6
-485 l0 -470 -24 -22 c-13 -12 -35 -30 -48 -39 -14 -9 -28 -26 -31 -37 -5 -21
-2 -21 219 -21 123 0 224 3 224 8 -1 17 -18 31 -77 61 l-63 31 0 53 c0 28 -3
108 -6 177 -3 69 -2 130 3 137 6 8 55 14 148 17 246 8 359 61 420 198 75 166
23 349 -122 430 -93 53 -203 68 -490 68 -202 0 -253 -3 -253 -13z m551 -107
c85 -44 124 -127 117 -250 -11 -186 -119 -263 -332 -234 l-46 7 0 242 c0 133
3 245 8 249 11 12 225 0 253 -14z"/>
<path d="M3335 4320 c-8 -12 16 -38 82 -92 21 -16 21 -20 16 -495 -6 -536 3
-473 -75 -533 -16 -12 -28 -28 -28 -36 0 -12 36 -14 220 -14 251 0 265 5 158
62 l-63 33 0 225 0 225 24 3 c111 16 276 -166 372 -409 l20 -52 -36 -29 c-67
-56 -59 -58 190 -58 177 0 225 3 225 13 0 7 -31 30 -70 50 l-69 38 -63 122
c-50 96 -78 138 -136 199 -40 42 -92 86 -114 97 l-41 20 29 6 c117 25 181 60
230 126 38 52 58 131 51 206 -14 143 -113 240 -284 279 -93 22 -626 33 -638
14z m499 -90 c75 -12 127 -47 163 -107 45 -77 34 -198 -24 -270 -40 -48 -100
-68 -220 -71 l-113 -4 0 225 c0 254 -7 234 85 236 28 0 77 -3 109 -9z"/>
<path d="M4520 4307 c0 -16 13 -31 45 -51 l45 -29 0 -483 c0 -374 -3 -486 -12
-493 -7 -6 -27 -22 -44 -36 -18 -13 -34 -34 -37 -45 -5 -20 -1 -20 209 -20
245 0 253 4 149 65 l-65 38 0 218 0 219 64 0 c36 0 68 -4 71 -10 3 -5 21 -10
38 -10 48 0 119 -28 146 -57 39 -41 49 -15 45 122 -2 63 -4 120 -4 125 0 6 -9
10 -20 10 -13 0 -20 -7 -20 -19 0 -23 -44 -71 -67 -72 -10 -1 -71 -2 -136 -3
l-117 -1 2 225 3 225 177 0 c174 0 177 0 203 -25 15 -14 40 -51 56 -82 24 -47
34 -58 54 -58 28 0 42 17 26 33 -7 7 -11 54 -11 124 l0 113 -400 0 -400 0 0
-23z"/>
<path d="M5434 4315 c-7 -17 5 -28 68 -70 l37 -25 3 -402 c3 -390 4 -405 25
-450 46 -101 157 -188 277 -217 62 -15 202 -15 258 0 106 28 204 104 249 191
48 93 51 123 56 502 5 322 7 360 22 375 10 9 35 31 55 48 61 53 51 58 -142 61
-166 2 -172 2 -172 -17 0 -14 21 -34 63 -62 34 -24 65 -47 70 -53 4 -6 6 -175
5 -376 -3 -326 -5 -369 -21 -405 -48 -108 -107 -156 -215 -175 -68 -12 -149
-2 -200 24 -42 22 -99 89 -113 133 -12 40 -26 753 -15 797 3 13 29 38 61 60
38 25 55 43 53 54 -3 15 -25 17 -211 20 -181 2 -208 0 -213 -13z"/>
<path d="M6660 4311 c0 -13 18 -34 50 -58 l50 -37 0 -472 0 -473 -50 -47 c-78
-74 -76 -75 120 -72 103 2 171 7 172 13 1 6 -14 20 -33 32 -19 12 -46 31 -61
43 l-28 22 0 416 1 417 20 -39 c12 -21 54 -131 95 -245 199 -551 200 -554 255
-566 45 -11 66 19 108 155 66 210 256 700 272 700 5 0 8 -180 7 -427 l-3 -428
-52 -34 c-90 -58 -81 -61 163 -61 245 0 249 2 154 67 l-55 39 -3 459 c-1 253
0 470 3 483 3 12 28 38 55 58 75 54 68 61 -65 69 -141 9 -196 2 -235 -32 -43
-36 -48 -47 -176 -401 -63 -175 -116 -323 -119 -331 -3 -8 -8 -12 -10 -9 -3 3
-46 122 -94 265 -49 144 -103 287 -119 319 -16 33 -36 78 -43 102 -21 71 -41
79 -222 87 -154 7 -157 6 -157 -14z"/>
<path d="M8102 4308 c2 -13 23 -38 51 -58 l47 -35 -2 -485 -3 -485 -47 -30
c-27 -17 -48 -38 -48 -47 0 -17 25 -18 394 -18 l394 0 11 33 c5 17 12 52 16
77 3 25 13 69 21 99 21 72 13 101 -27 101 -40 0 -74 -36 -83 -86 -16 -93 -33
-107 -141 -119 -33 -4 -66 -12 -74 -18 -8 -7 -50 -11 -104 -10 -75 1 -93 4
-104 19 -10 13 -13 72 -13 241 l0 223 90 0 c110 0 152 -15 202 -71 25 -30 41
-40 53 -35 12 4 15 11 9 24 -5 9 -10 73 -11 142 -1 69 -3 128 -3 133 0 18 -31
4 -44 -20 -31 -61 -61 -77 -154 -85 -48 -4 -99 -10 -114 -13 l-27 -7 -3 213
c-2 118 -2 220 0 227 5 15 296 17 335 3 14 -6 47 -41 73 -80 27 -39 57 -73 68
-77 24 -8 43 10 29 28 -6 7 -13 60 -17 117 -3 57 -9 107 -12 112 -3 5 -176 9
-385 9 l-380 0 3 -22z"/>
<path d="M3859 2767 c-64 -24 -109 -58 -129 -97 -35 -69 -26 -189 21 -282 10
-20 19 -39 19 -42 0 -2 -21 -15 -46 -27 -69 -35 -120 -84 -150 -144 -23 -48
-25 -62 -19 -112 17 -136 92 -204 248 -225 98 -13 176 0 232 37 85 58 85 58
165 17 62 -32 84 -37 152 -41 55 -2 97 2 136 14 104 30 117 42 86 76 -14 16
-18 16 -52 2 -60 -25 -133 -12 -201 35 -31 22 -55 43 -54 48 1 5 15 38 30 74
19 46 27 84 28 130 l1 65 79 8 c90 9 116 22 135 66 10 26 10 35 -4 56 -21 32
-37 31 -86 -1 -31 -21 -47 -25 -72 -20 -78 16 -150 18 -173 6 -13 -7 -31 -30
-40 -51 l-18 -38 33 -37 c50 -57 64 -97 48 -142 -21 -65 -20 -65 -98 28 -30
36 -77 89 -103 119 -57 63 -56 65 50 118 89 45 119 77 129 138 14 98 -19 164
-104 203 -68 31 -185 40 -243 19z m175 -77 c29 -35 41 -85 33 -137 -10 -57
-54 -94 -128 -108 -32 -6 -36 -4 -55 32 -45 81 -42 169 9 215 43 41 105 40
141 -2z m-2 -643 c70 -78 68 -88 -17 -113 -72 -20 -129 -6 -191 49 -55 48 -83
105 -84 165 0 55 11 76 62 112 l40 29 65 -87 c36 -48 92 -117 125 -155z"/>
<path d="M5195 2755 c-93 -17 -151 -41 -204 -83 -95 -77 -141 -193 -141 -359
0 -250 83 -393 260 -449 79 -26 238 -25 305 0 89 34 215 131 215 166 0 40 -46
52 -75 21 -21 -24 -176 -113 -224 -129 -19 -7 -59 -12 -88 -12 -49 0 -59 4
-87 33 -45 44 -60 127 -60 332 0 133 4 176 23 254 31 125 62 162 144 169 117
9 198 -68 231 -220 5 -20 18 -33 46 -47 39 -19 41 -19 50 -1 17 31 12 151 -8
190 -24 49 -92 97 -170 119 -95 28 -137 31 -217 16z"/>
<path d="M6095 2751 c-176 -44 -258 -117 -305 -270 -24 -76 -27 -258 -6 -336
52 -195 204 -306 418 -306 173 0 293 71 366 218 68 136 67 346 -3 490 -30 61
-121 148 -184 176 -37 16 -175 47 -206 46 -5 0 -41 -8 -80 -18z m147 -61 c45
-13 103 -75 118 -127 19 -67 30 -279 20 -382 -15 -147 -43 -213 -103 -249
-105 -63 -209 -18 -253 110 -27 77 -27 380 -1 485 34 132 114 192 219 163z"/>
<path d="M1960 2270 l0 -40 615 0 615 0 0 40 0 40 -615 0 -615 0 0 -40z"/>
<path d="M6990 2270 l0 -40 643 2 642 3 3 38 3 37 -645 0 -646 0 0 -40z"/>
</g>
</svg>
